<!-- icon666.com - MILLIONS OF FREE VECTOR ICONS --><svg version="1.1" id="Capa_1" xmlns="http://www.w3.org/2000/svg" xmlns:xlink="http://www.w3.org/1999/xlink" x="0px" y="0px" viewBox="0 0 402.432 402.432" style="enable-background:new 0 0 402.432 402.432;" xml:space="preserve"><g><g><path d="M387.072,61.952H348.16V31.744h-30.72v30.208H84.992V31.744h-30.72v30.208H15.36C6.877,61.952,0,68.829,0,77.312v278.016 c0,8.483,6.877,15.36,15.36,15.36h371.712c8.483,0,15.36-6.877,15.36-15.36V77.312C402.432,68.829,395.555,61.952,387.072,61.952z M118.272,299.008h-48.64v-30.72h48.64V299.008z M118.272,239.104h-48.64v-30.72h48.64V239.104z M118.272,179.2h-48.64v-30.72 h48.64V179.2z M189.952,298.496h-48.64v-30.72h48.64V298.496z M189.952,238.592h-48.64v-30.72h48.64V238.592z M189.952,178.688 h-48.64v-30.72h48.64V178.688z M212.48,297.984v-30.72h48.64l0.512,30.72H212.48z M212.48,238.08v-30.72h48.64l0.512,30.72H212.48 z M212.48,178.176v-30.72h48.64l0.512,30.72H212.48z M284.16,297.472v-30.72h48.64l0.512,30.72H284.16z M284.16,237.568v-30.72 h48.64l0.512,30.72H284.16z M284.16,177.664v-30.72h48.64l0.512,30.72H284.16z"></path></g></g></svg>