<!-- icon666.com - MILLIONS OF FREE VECTOR ICONS --><svg id="Capa_1" enable-background="new 0 0 512 512" viewBox="0 0 512 512" xmlns="http://www.w3.org/2000/svg"><path d="m312 99h64c9.649 0 17.5-7.851 17.5-17.5v-64c0-9.649-7.851-17.5-17.5-17.5h-64c-9.649 0-17.5 7.851-17.5 17.5v64c0 9.649 7.851 17.5 17.5 17.5zm-2.5-81.5c0-1.378 1.121-2.5 2.5-2.5h64c1.379 0 2.5 1.122 2.5 2.5v64c0 1.378-1.121 2.5-2.5 2.5h-64c-1.379 0-2.5-1.122-2.5-2.5z"></path><path d="m461.02 128h-13.339c-4.143 0-7.5 3.358-7.5 7.5s3.357 7.5 7.5 7.5h13.339c4.125 0 7.48 3.356 7.48 7.481v32.038c0 4.125-3.355 7.481-7.48 7.481h-410.039c-4.125 0-7.481-3.356-7.481-7.481v-32.038c0-4.125 3.356-7.481 7.481-7.481h364.886c4.143 0 7.5-3.358 7.5-7.5s-3.357-7.5-7.5-7.5h-174.787v-62c0-12.958-10.542-23.5-23.5-23.5h-45.248c-4.142 0-7.5 3.358-7.5 7.5s3.358 7.5 7.5 7.5h45.248c4.687 0 8.5 3.813 8.5 8.5v62h-105v-62c0-4.687 3.813-8.5 8.5-8.5h10.752c4.142 0 7.5-3.358 7.5-7.5s-3.358-7.5-7.5-7.5h-10.752c-12.958 0-23.5 10.542-23.5 23.5v62h-55.099c-12.396 0-22.481 10.085-22.481 22.481v32.038c0 11.393 8.518 20.833 19.52 22.286l139.48 118.166v52.76c0 4.142 3.358 7.5 7.5 7.5s7.5-3.358 7.5-7.5v-48.731h107v91h-107v-6.408c0-4.142-3.358-7.5-7.5-7.5s-7.5 3.358-7.5 7.5v6.408h-8.5c-4.142 0-7.5 3.358-7.5 7.5s3.358 7.5 7.5 7.5h154c4.143 0 7.5-3.358 7.5-7.5s-3.357-7.5-7.5-7.5h-8.5v-95.029l139.479-118.165c11.002-1.453 19.521-10.894 19.521-22.287v-32.038c0-12.396-10.085-22.481-22.48-22.481zm-146.776 184h-116.488l-126.3-107h369.089z"></path><path d="m256 457c-15.164 0-27.5 12.336-27.5 27.5s12.336 27.5 27.5 27.5c15.163 0 27.5-12.336 27.5-27.5s-12.337-27.5-27.5-27.5zm0 40c-6.893 0-12.5-5.607-12.5-12.5s5.607-12.5 12.5-12.5 12.5 5.607 12.5 12.5-5.607 12.5-12.5 12.5z"></path></svg>