<!-- icon666.com - MILLIONS OF FREE VECTOR ICONS --><svg version="1.1" id="Capa_1" xmlns="http://www.w3.org/2000/svg" xmlns:xlink="http://www.w3.org/1999/xlink" x="0px" y="0px" viewBox="0 0 512 512" style="enable-background:new 0 0 512 512;" xml:space="preserve"><g><g><g><path d="M490.667,299.776V74.667c0-17.643-14.357-32-32-32H277.333V32c0-17.643-14.357-32-32-32c-17.643,0-32,14.357-32,32 v10.667H32c-17.643,0-32,14.357-32,32v384c0,17.643,14.357,32,32,32h267.776C321.131,504.107,346.304,512,373.333,512 C449.792,512,512,449.792,512,373.333C512,346.304,504.107,321.131,490.667,299.776z M234.667,32 c0-5.888,4.779-10.667,10.667-10.667S256,26.112,256,32v10.667h-21.333V32z M337.195,64l-14.208,42.667H167.68L153.472,64 H337.195z M32,469.333c-5.888,0-10.667-4.779-10.667-10.667v-384C21.333,68.779,26.112,64,32,64h98.987l18.901,56.704 C151.339,125.056,155.413,128,160,128h170.667c4.587,0,8.661-2.944,10.112-7.296L359.68,64h98.987 c5.888,0,10.667,4.779,10.667,10.667v198.848c-24.939-24-58.752-38.848-96-38.848c-27.029,0-52.203,7.893-73.557,21.333H96 c-5.888,0-10.667,4.779-10.667,10.667S90.112,277.333,96,277.333h177.515c-11.819,12.288-21.461,26.688-28.139,42.667H96 c-5.888,0-10.667,4.779-10.667,10.667S90.112,341.333,96,341.333h142.549c-2.453,10.283-3.883,20.971-3.883,32 c0,3.605,0.277,7.125,0.533,10.667H96c-5.888,0-10.667,4.779-10.667,10.667S90.112,405.333,96,405.333h142.549 c5.824,24.469,18.069,46.443,34.965,64H32z M373.333,490.667C308.629,490.667,256,438.037,256,373.333 c0-13.504,2.411-26.411,6.613-38.507c0-0.021,0.021-0.043,0.021-0.043c16-45.781,59.52-78.784,110.699-78.784 c64.704,0,117.333,52.629,117.333,117.333S438.037,490.667,373.333,490.667z"></path><path d="M96,213.333h298.667c5.888,0,10.667-4.779,10.667-10.667S400.555,192,394.667,192H96 c-5.888,0-10.667,4.779-10.667,10.667S90.112,213.333,96,213.333z"></path><path d="M444.011,322.347c-4.608-3.669-11.307-2.901-15.019,1.664l-77.781,97.216l-34.24-35.307 c-4.117-4.245-10.859-4.331-15.083-0.235c-4.224,4.096-4.331,10.859-0.235,15.083l42.667,44.011 c2.027,2.048,4.8,3.221,7.68,3.221c0.171,0,0.341,0,0.512,0c3.051-0.149,5.909-1.6,7.829-3.989l85.333-106.667 C449.344,332.736,448.597,326.037,444.011,322.347z"></path></g></g></g></svg>