<!-- icon666.com - MILLIONS OF FREE VECTOR ICONS --><svg version="1.1" id="Capa_1" xmlns="http://www.w3.org/2000/svg" xmlns:xlink="http://www.w3.org/1999/xlink" x="0px" y="0px" viewBox="0 0 512 512" style="enable-background:new 0 0 512 512;" xml:space="preserve"><g><g><path d="M307.996,30.023C297.411,11.713,277.669,0,256,0s-41.411,11.713-51.996,30.023L43.912,30.024V512h424.176V30.024 L307.996,30.023z M184,60.024l40.144-0.001l3.536-10C231.914,38.047,243.295,30,256,30c12.705,0,24.086,8.047,28.32,20.023 l3.536,10H328v30.049H184V60.024z M378.04,120.072v301.88H133.96v-301.88C133.96,120.072,378.04,120.072,378.04,120.072z M438.088,482H73.912V60.024H154v30.048h-50.04v361.88h304.08V90.072H358V60.024h80.088V482z"></path></g></g><g><g><path d="M256,210.168c-50.104,0-90.868,40.764-90.868,90.868s40.764,90.868,90.868,90.868s90.868-40.764,90.868-90.868 C346.868,250.932,306.104,210.168,256,210.168z M241,242.043v43.993h-43.993C202.484,264.504,219.468,247.521,241,242.043z M256,361.904c-28.387,0-52.294-19.536-58.993-45.868H271v-73.993c26.332,6.699,45.868,30.606,45.868,58.993 C316.868,334.599,289.562,361.904,256,361.904z"></path></g></g><g><g><rect x="165.12" y="150.12" width="181.76" height="30"></rect></g></g></svg>