<!-- icon666.com - MILLIONS OF FREE VECTOR ICONS --><svg version="1.1" id="Capa_1" xmlns="http://www.w3.org/2000/svg" xmlns:xlink="http://www.w3.org/1999/xlink" x="0px" y="0px" viewBox="0 0 485.946 485.946" style="enable-background:new 0 0 485.946 485.946;" xml:space="preserve"><g><g id="Layer_8_41_"><path d="M287.122,113.7c8.219-2.096,14.376-6.87,6.831-14.838c-0.91-0.949-2.377-0.618-3.044,0.386 c-2.167,3.294-7.125,4.381-12.925,4.23c1.789-0.528,3.212-1.439,4.029-2.925c2.933-5.417,0.131-10.002-4.117-13.847 c-1.532-1.401-3.272-2.279-5.109-2.778c11.426-20.155,23.791-44.21,32.097-66.752c19.42-52.689-61.004,36.059-88.735,20.406 c-27.729-15.646-16.636-64.772-63.783-17.626c-33.193,33.21,18.394,63.636,51.831,78.748c-6.773,0.947-13.537,1.541-20.2,1.535 c-7.51-0.006-14.995-0.235-22.481-0.846c-6.042-0.492-21.382-1.037-24.252-8.052c-0.927-2.273-4.66-1.283-3.719,1.032 c3.182,7.795,14.192,9.217,21.459,10.159c7.923,1.026,15.98,1.507,24.022,1.603c-0.103,0.011-0.208,0.028-0.308,0.039 c-19.729,2.577-39.65,5.71-58.717,11.542c-6.774,2.075-23.943,6.753-22.61,16.725c0.332,2.433,4.193,2.46,3.861,0 c-1.503-11.244,32.219-16.451,39.168-17.953c19.458-4.23,39.279-6.864,59.097-8.851 C143.283,133.271,65.179,214.038,65.179,312.806c0,119.542,79.595,173.141,177.792,173.141 c98.197,0,177.795-53.599,177.795-173.141C420.767,214.918,354.466,147.312,287.122,113.7z M292.463,103.243 c3.2,5.442-6.741,6.919-10.934,7.384c-0.24,0.027-0.436,0.017-0.667,0.036c-2.789-1.3-5.581-2.544-8.359-3.732 C280.451,107.831,288.131,107.108,292.463,103.243z M272.093,87.913c5.373,1.62,7.157,5.333,5.317,11.138 c-2.031,0.834-4.88,0.438-7.005,0.292c-2.058-0.136-4.088-0.459-6.106-0.853c2.041-3.429,4.175-7.064,6.347-10.841 C271.13,87.727,271.598,87.79,272.093,87.913z"></path></g></g></svg>