<!-- icon666.com - MILLIONS OF FREE VECTOR ICONS --><svg enable-background="new 0 0 512 512" viewBox="0 0 512 512" xmlns="http://www.w3.org/2000/svg"><g id="_x32_5_Applicant"><g><g><g><path d="m256.038 204.374c40.262 0 72.877-32.509 72.877-72.873 0-40.139-32.692-72.796-72.877-72.796-40.223 0-72.953 32.658-72.953 72.796 0 40.66 32.91 72.873 72.953 72.873zm-28.742-23.553c6.663-9.359 17.146-15.006 28.743-15.006 11.565 0 22.028 5.654 28.682 15.023-8.601 5.058-18.35 7.83-28.682 7.83-10.313 0-20.079-2.777-28.743-7.847zm28.742-106.411c31.526 0 57.171 25.61 57.171 57.09 0 15.066-5.826 29.082-16.132 39.689-9.582-13.152-24.514-21.081-41.039-21.081-16.566 0-31.526 7.931-41.117 21.086-10.297-10.592-16.131-24.617-16.131-39.694.001-31.48 25.684-57.09 57.248-57.09z"></path><path d="m256 145.27c14.249 0 25.836-11.591 25.836-25.836s-11.587-25.832-25.836-25.832-25.836 11.588-25.836 25.832 11.587 25.836 25.836 25.836zm0-35.963c5.583 0 10.13 4.544 10.13 10.127 0 5.587-4.548 10.13-10.13 10.13s-10.13-4.544-10.13-10.13c0-5.679 4.447-10.127 10.13-10.127z"></path><path d="m370.81 248.147h-229.62c-4.341 0-7.853 3.516-7.853 7.853s3.512 7.853 7.853 7.853h229.62c4.341 0 7.853-3.516 7.853-7.853s-3.513-7.853-7.853-7.853z"></path><path d="m370.81 307.626h-229.62c-4.341 0-7.853 3.516-7.853 7.853s3.512 7.853 7.853 7.853h229.62c4.341 0 7.853-3.516 7.853-7.853 0-4.336-3.513-7.853-7.853-7.853z"></path><path d="m370.81 367.106h-229.62c-4.341 0-7.853 3.516-7.853 7.853s3.512 7.853 7.853 7.853h229.62c4.341 0 7.853-3.516 7.853-7.853s-3.513-7.853-7.853-7.853z"></path><path d="m370.81 426.585h-229.62c-4.341 0-7.853 3.516-7.853 7.853s3.512 7.853 7.853 7.853h229.62c4.341 0 7.853-3.516 7.853-7.853s-3.513-7.853-7.853-7.853z"></path></g></g><path d="m404.223 4.709h-296.446c-17.324 0-31.411 14.091-31.411 31.411v439.76c0 17.32 14.088 31.411 31.411 31.411h296.445c17.324 0 31.411-14.091 31.411-31.411v-439.76c.001-17.32-14.087-31.411-31.41-31.411zm15.705 471.171c0 8.662-7.048 15.706-15.706 15.706h-296.445c-8.658 0-15.706-7.044-15.706-15.706v-439.76c0-8.662 7.048-15.706 15.706-15.706h296.445c8.658 0 15.706 7.044 15.706 15.706z"></path></g></g></svg>